# xmcd
#
# Track frame offsets:
#	150
#	20425
#	37275
#	55362
#	72425
#	88100
#	109625
#	127450
#	150237
#	172725
#
# Disc length: 2546 seconds
#
# Revision: 0
# Processed by: cddbd v1.5.1PL0 Copyright (c) Steve Scherf et al.
# Submitted via: audiograbber 1.83.01
#
DISCID=8609f00a
DTITLE=AVA - AVA
DYEAR=1900
DGENRE=
TTITLE0=Brother Brother
TTITLE1=True Love
TTITLE2=Fire
TTITLE3=I Want What I Want
TTITLE4=Lovin You
TTITLE5=Waiting For The Order
TTITLE6=Come Va
TTITLE7=As Deep As The Ocean
TTITLE8=Stay
TTITLE9=HoleI In  My Heart
EXTD=
EXTT0=
EXTT1=
EXTT2=
EXTT3=
EXTT4=
EXTT5=
EXTT6=
EXTT7=
EXTT8=
EXTT9=
PLAYORDER=
